<svg width="19.984375" height="23.006348" viewBox="0 0 19.9844 23.0063" fill="none" xmlns="http://www.w3.org/2000/svg" xmlns:xlink="http://www.w3.org/1999/xlink">
	<desc>
			Created with Pixso.
	</desc>
	<defs/>
	<path id="Arrow 1" d="M11.47 21.48L11.49 21.5C11.49 22.34 10.83 23 9.99 23C9.15 23 8.49 22.34 8.49 21.5L8.51 21.48L11.47 21.48ZM9.99 3.62L2.56 11.05C1.97 11.64 1.04 11.64 0.44 11.05C-0.15 10.45 -0.15 9.52 0.44 8.93L8.93 0.44C9.52 -0.15 10.45 -0.15 11.05 0.44L19.53 8.93C20.13 9.52 20.13 10.45 19.53 11.05C18.94 11.64 18.01 11.64 17.41 11.05L9.99 3.62Z" fill="#FFFFFF" fill-opacity="1.000000" fill-rule="nonzero"/>
	<path id="Arrow 1" d="M8.49 5.12L2.56 11.05C1.97 11.64 1.04 11.64 0.44 11.05C-0.15 10.45 -0.15 9.52 0.44 8.93L8.93 0.44C9.52 -0.15 10.45 -0.15 11.05 0.44L19.53 8.93C20.13 9.52 20.13 10.45 19.53 11.05C18.94 11.64 18.01 11.64 17.41 11.05L11.49 5.12L11.49 21.5C11.49 22.34 10.83 23 9.99 23C9.15 23 8.49 22.34 8.49 21.5L8.49 5.12Z" fill="#518E07" fill-opacity="1.000000" fill-rule="evenodd"/>
</svg>
